<?xml version="1.0" standalone="no"?>
<!DOCTYPE svg PUBLIC "-//W3C//DTD SVG 20010904//EN"
 "http://www.w3.org/TR/2001/REC-SVG-20010904/DTD/svg10.dtd">
<svg version="1.0" xmlns="http://www.w3.org/2000/svg"
 width="742.000000pt" height="332.000000pt" viewBox="0 0 742.000000 332.000000"
 preserveAspectRatio="xMidYMid meet">
<metadata>
Created by potrace 1.16, written by Peter Selinger 2001-2019
</metadata>
<g transform="translate(0.000000,332.000000) scale(0.100000,-0.100000)"
fill="#000000" stroke="none">
<path d="M3536 2915 c-5 -13 -91 -15 -691 -15 l-686 0 -24 -25 -25 -24 0 -360
0 -361 -52 40 c-29 22 -69 45 -88 50 -46 13 -122 13 -157 -1 -42 -15 -103 -60
-103 -75 0 -20 29 -44 55 -44 12 0 25 -6 28 -14 3 -7 18 -17 34 -21 15 -3 47
-22 70 -41 23 -19 51 -34 62 -34 12 0 23 -6 25 -13 22 -76 31 -103 37 -111 4
-5 22 17 39 48 18 31 36 59 41 62 5 3 9 -40 9 -101 l0 -107 -30 7 c-24 5 -45
-1 -93 -26 -60 -32 -66 -33 -178 -34 -69 0 -122 -4 -130 -11 -8 -6 -42 -17
-77 -24 -57 -12 -65 -17 -97 -60 -19 -26 -35 -53 -35 -59 0 -6 -12 -17 -27
-23 -63 -27 -145 -104 -258 -241 l-120 -146 -130 -57 c-71 -32 -175 -77 -230
-102 -55 -24 -103 -47 -108 -51 -7 -7 7 -139 17 -148 3 -3 45 2 93 11 48 8
216 38 372 66 l283 51 107 -39 c420 -158 409 -154 474 -151 35 2 71 -2 84 -9
17 -9 442 -12 1843 -12 l1822 0 34 34 c30 30 34 40 34 84 0 28 -4 62 -10 76
-15 41 -66 66 -132 66 l-58 0 0 940 0 941 -25 24 -24 25 -681 0 c-596 0 -681
2 -686 15 -5 13 -48 15 -304 15 -256 0 -299 -2 -304 -15z m1904 -1055 l0 -890
-49 0 c-34 0 -51 4 -55 15 -4 11 -20 15 -56 15 -36 0 -52 -4 -56 -15 -8 -20
-60 -20 -68 0 -8 21 -104 21 -112 0 -8 -19 -58 -19 -74 0 -17 20 -99 20 -106
0 -8 -20 -70 -20 -78 0 -8 21 -104 21 -112 0 -8 -20 -63 -20 -70 0 -4 10 -21
15 -54 15 -30 0 -52 -6 -60 -15 -7 -8 -23 -15 -37 -15 -13 0 -26 7 -29 15 -9
21 -112 21 -120 0 -8 -20 -60 -20 -68 0 -8 23 -844 23 -852 0 -4 -8 -18 -15
-34 -15 -16 0 -30 7 -34 15 -8 21 -104 21 -112 0 -8 -20 -60 -20 -68 0 -4 11
-21 15 -60 15 -39 0 -55 -4 -60 -15 -7 -20 -62 -20 -70 0 -8 21 -104 21 -112
0 -8 -20 -60 -20 -68 0 -8 21 -99 21 -116 0 -16 -19 -59 -19 -66 0 -9 21 -109
21 -118 0 -7 -20 -62 -20 -70 0 -4 11 -20 15 -56 15 -36 0 -52 -4 -56 -15 -4
-8 -17 -15 -30 -15 l-24 0 0 883 c0 486 3 887 7 890 3 4 726 7 1605 7 l1598 0
0 -890z m-4008 -584 c35 -8 99 -18 143 -22 74 -6 83 -9 118 -43 59 -56 101
-111 91 -121 -5 -5 -78 14 -174 46 -91 30 -202 66 -247 80 -45 14 -85 29 -88
35 -7 10 49 38 77 39 9 0 45 -7 80 -14z"/>
<path d="M4223 2248 c6 -19 1018 -19 1025 0 3 9 -104 12 -513 12 -409 0 -516
-3 -512 -12z"/>
<path d="M4220 2160 c0 -7 178 -10 515 -10 337 0 515 3 515 10 0 7 -178 10
-515 10 -337 0 -515 -3 -515 -10z"/>
<path d="M4225 2080 c-3 -6 0 -12 7 -15 26 -10 1008 0 1011 10 3 14 -1009 19
-1018 5z"/>
<path d="M4227 2003 c-4 -3 -7 -10 -7 -15 0 -4 232 -8 515 -8 296 0 515 4 515
9 0 5 -7 12 -16 15 -21 8 -999 8 -1007 -1z"/>
<path d="M4223 1908 c6 -19 1018 -19 1025 0 3 9 -104 12 -513 12 -409 0 -516
-3 -512 -12z"/>
<path d="M4582 1743 l3 -28 148 -3 147 -3 0 31 0 30 -151 0 -150 0 3 -27z"/>
<path d="M219 1083 c-24 -63 22 -222 75 -256 13 -9 38 -42 56 -74 41 -74 78
-113 106 -113 24 0 69 47 100 105 l18 33 -32 30 c-18 17 -32 33 -32 36 0 3 9
23 20 44 l20 37 -20 17 c-11 9 -51 27 -88 39 -53 18 -78 33 -120 76 -60 60
-87 67 -103 26z"/>
</g>
</svg>
